<?xml version="1.0" standalone="no"?>
<!DOCTYPE svg PUBLIC "-//W3C//DTD SVG 20010904//EN"
 "http://www.w3.org/TR/2001/REC-SVG-20010904/DTD/svg10.dtd">
<svg version="1.0" xmlns="http://www.w3.org/2000/svg"
 width="360.000000pt" height="360.000000pt" viewBox="0 0 360.000000 360.000000"
 preserveAspectRatio="xMidYMid meet">
<metadata>
Created by potrace 1.14, written by Peter Selinger 2001-2017
</metadata>
<g transform="translate(0.000000,360.000000) scale(0.100000,-0.100000)"
fill="#000000" stroke="none">
<path d="M1535 3585 c-691 -112 -1244 -582 -1453 -1236 -62 -193 -77 -300 -77
-549 0 -195 3 -240 23 -338 89 -440 325 -823 672 -1091 224 -173 471 -284 760
-343 100 -20 144 -23 340 -23 195 0 240 3 338 23 658 133 1179 595 1380 1223
62 193 77 300 77 549 0 195 -3 240 -23 338 -149 734 -698 1285 -1427 1433
-143 28 -471 36 -610 14z m220 -916 c160 -35 321 -163 400 -319 76 -150 82
-358 16 -512 l-18 -43 -12 45 c-7 25 -31 83 -53 130 -33 69 -56 100 -123 166
-91 91 -180 141 -295 168 -243 58 -511 -53 -653 -269 l-39 -60 5 100 c7 165
64 297 177 415 156 162 371 227 595 179z m716 -459 c252 -250 251 -648 -2
-900 -116 -115 -255 -173 -419 -173 -157 -1 -300 57 -415 165 l-60 56 95 -5
c190 -10 356 53 489 185 131 130 193 272 194 447 2 138 -11 185 -101 369 -3 4
29 -9 69 -30 50 -26 99 -63 150 -114z m-1002 -57 c-7 -10 -27 -33 -43 -52 -49
-59 -105 -189 -123 -286 -50 -272 97 -569 340 -689 73 -35 195 -66 264 -66
l38 0 -30 -25 c-51 -41 -159 -94 -226 -110 -252 -59 -513 42 -654 255 -192
289 -125 679 150 875 73 52 138 82 220 100 79 18 80 18 64 -2z"/>
</g>
</svg>
